<svg width="4" height="4" viewBox="0 0 4 4" fill="none" xmlns="http://www.w3.org/2000/svg">
<path d="M2.00016 0.00463867C2.32672 0.00461981 2.64609 0.100535 2.91861 0.280472C3.19112 0.460408 3.40477 0.716437 3.53302 1.01676C3.66127 1.31708 3.69846 1.64846 3.63999 1.96974C3.58151 2.29102 3.42994 2.58805 3.20411 2.82392C2.97827 3.0598 2.68811 3.22414 2.36967 3.29652C2.05124 3.3689 1.71855 3.34614 1.41294 3.23106C1.10733 3.11598 0.842258 2.91366 0.650649 2.64923C0.459039 2.38479 0.349335 2.06989 0.335163 1.74364L0.333496 1.67131L0.335163 1.59897C0.353803 1.16989 0.537365 0.764565 0.84757 0.467525C1.15778 0.170486 1.57068 0.00466349 2.00016 0.00463867Z" fill="#A1A3AB"/>
</svg>
